<?xml version="1.0" encoding="UTF-8" standalone="no"?>
<!-- Created with Inkscape (http://www.inkscape.org/) -->

<svg
   version="1.1"
   id="svg1"
   width="140"
   height="108.3871"
   viewBox="0 0 140 108.3871"
   sodipodi:docname="Kingo.svg"
   inkscape:version="1.4 (e7c3feb100, 2024-10-09)"
   xmlns:inkscape="http://www.inkscape.org/namespaces/inkscape"
   xmlns:sodipodi="http://sodipodi.sourceforge.net/DTD/sodipodi-0.dtd"
   xmlns="http://www.w3.org/2000/svg"
   xmlns:svg="http://www.w3.org/2000/svg">
  <defs
     id="defs1">
    <inkscape:path-effect
       effect="skeletal"
       id="path-effect14"
       is_visible="true"
       lpeversion="1"
       pattern="M 0,18.867924 C 0,8.45283 8.45283,0 18.867924,0 c 10.415094,0 18.867924,8.45283 18.867924,18.867924 0,10.415094 -8.45283,18.867924 -18.867924,18.867924 C 8.45283,37.735848 0,29.283018 0,18.867924 Z"
       copytype="single_stretched"
       prop_scale="0.58568231"
       scale_y_rel="false"
       spacing="0"
       normal_offset="0"
       tang_offset="0"
       prop_units="false"
       vertical_pattern="false"
       hide_knot="false"
       fuse_tolerance="0" />
    <inkscape:path-effect
       effect="skeletal"
       id="path-effect23"
       is_visible="true"
       lpeversion="1"
       pattern="M 0,18.867925 C 0,8.4528302 8.4528302,0 18.867925,0 c 10.415094,0 18.867924,8.4528302 18.867924,18.867925 0,10.415094 -8.45283,18.867924 -18.867924,18.867924 C 8.4528302,37.735849 0,29.283019 0,18.867925 Z"
       copytype="single_stretched"
       prop_scale="1.037194"
       scale_y_rel="false"
       spacing="0"
       normal_offset="0"
       tang_offset="0"
       prop_units="false"
       vertical_pattern="false"
       hide_knot="false"
       fuse_tolerance="0" />
    <inkscape:path-effect
       effect="skeletal"
       id="path-effect22"
       is_visible="true"
       lpeversion="1"
       pattern="M 0,18.867925 C 0,8.4528302 8.4528302,0 18.867925,0 c 10.415094,0 18.867924,8.4528302 18.867924,18.867925 0,10.415094 -8.45283,18.867924 -18.867924,18.867924 C 8.4528302,37.735849 0,29.283019 0,18.867925 Z"
       copytype="single_stretched"
       prop_scale="0.73709657"
       scale_y_rel="false"
       spacing="0"
       normal_offset="0"
       tang_offset="0"
       prop_units="false"
       vertical_pattern="false"
       hide_knot="false"
       fuse_tolerance="0" />
    <inkscape:path-effect
       effect="skeletal"
       id="path-effect21"
       is_visible="true"
       lpeversion="1"
       pattern="M 0,18.867925 C 0,8.4528302 8.4528302,0 18.867925,0 c 10.415094,0 18.867924,8.4528302 18.867924,18.867925 0,10.415094 -8.45283,18.867924 -18.867924,18.867924 C 8.4528302,37.735849 0,29.283019 0,18.867925 Z"
       copytype="single_stretched"
       prop_scale="0.4413405"
       scale_y_rel="false"
       spacing="0"
       normal_offset="0"
       tang_offset="0"
       prop_units="false"
       vertical_pattern="false"
       hide_knot="false"
       fuse_tolerance="0" />
    <inkscape:path-effect
       effect="skeletal"
       id="path-effect20"
       is_visible="true"
       lpeversion="1"
       pattern="M 0,18.867925 C 0,8.4528302 8.4528302,0 18.867925,0 c 10.415094,0 18.867924,8.4528302 18.867924,18.867925 0,10.415094 -8.45283,18.867924 -18.867924,18.867924 C 8.4528302,37.735849 0,29.283019 0,18.867925 Z"
       copytype="single_stretched"
       prop_scale="0.4413405"
       scale_y_rel="false"
       spacing="0"
       normal_offset="0"
       tang_offset="0"
       prop_units="false"
       vertical_pattern="false"
       hide_knot="false"
       fuse_tolerance="0" />
    <inkscape:path-effect
       effect="skeletal"
       id="path-effect16"
       is_visible="true"
       lpeversion="1"
       pattern="M 0,18.867925 C 0,8.4528302 8.4528302,0 18.867925,0 c 10.415094,0 18.867924,8.4528302 18.867924,18.867925 0,10.415094 -8.45283,18.867924 -18.867924,18.867924 C 8.4528302,37.735849 0,29.283019 0,18.867925 Z"
       copytype="single_stretched"
       prop_scale="0.37448513"
       scale_y_rel="false"
       spacing="0"
       normal_offset="0"
       tang_offset="0"
       prop_units="false"
       vertical_pattern="false"
       hide_knot="false"
       fuse_tolerance="0" />
    <inkscape:path-effect
       effect="skeletal"
       id="path-effect12"
       is_visible="true"
       lpeversion="1"
       pattern="M 0,18.867925 C 0,8.4528302 8.4528302,0 18.867925,0 c 10.415094,0 18.867924,8.4528302 18.867924,18.867925 0,10.415094 -8.45283,18.867924 -18.867924,18.867924 C 8.4528302,37.735849 0,29.283019 0,18.867925 Z"
       copytype="single_stretched"
       prop_scale="0.37448513"
       scale_y_rel="false"
       spacing="0"
       normal_offset="0"
       tang_offset="0"
       prop_units="false"
       vertical_pattern="false"
       hide_knot="false"
       fuse_tolerance="0" />
    <inkscape:path-effect
       effect="skeletal"
       id="path-effect11"
       is_visible="true"
       lpeversion="1"
       pattern="M 0,18.867925 C 0,8.4528302 8.4528302,0 18.867925,0 c 10.415094,0 18.867924,8.4528302 18.867924,18.867925 0,10.415094 -8.45283,18.867924 -18.867924,18.867924 C 8.4528302,37.735849 0,29.283019 0,18.867925 Z"
       copytype="single_stretched"
       prop_scale="0.37448513"
       scale_y_rel="false"
       spacing="0"
       normal_offset="0"
       tang_offset="0"
       prop_units="false"
       vertical_pattern="false"
       hide_knot="false"
       fuse_tolerance="0" />
    <inkscape:path-effect
       effect="skeletal"
       id="path-effect10"
       is_visible="true"
       lpeversion="1"
       pattern="M 0,18.867925 C 0,8.4528302 8.4528302,0 18.867925,0 c 10.415094,0 18.867924,8.4528302 18.867924,18.867925 0,10.415094 -8.45283,18.867924 -18.867924,18.867924 C 8.4528302,37.735849 0,29.283019 0,18.867925 Z"
       copytype="single_stretched"
       prop_scale="0.37448513"
       scale_y_rel="false"
       spacing="0"
       normal_offset="0"
       tang_offset="0"
       prop_units="false"
       vertical_pattern="false"
       hide_knot="false"
       fuse_tolerance="0" />
    <inkscape:path-effect
       effect="skeletal"
       id="path-effect9"
       is_visible="true"
       lpeversion="1"
       pattern="M 0,18.867925 C 0,8.4528302 8.4528302,0 18.867925,0 c 10.415094,0 18.867924,8.4528302 18.867924,18.867925 0,10.415094 -8.45283,18.867924 -18.867924,18.867924 C 8.4528302,37.735849 0,29.283019 0,18.867925 Z"
       copytype="single_stretched"
       prop_scale="0.37448513"
       scale_y_rel="false"
       spacing="0"
       normal_offset="0"
       tang_offset="0"
       prop_units="false"
       vertical_pattern="false"
       hide_knot="false"
       fuse_tolerance="0" />
  </defs>
  <sodipodi:namedview
     id="namedview1"
     pagecolor="#ffffff"
     bordercolor="#000000"
     borderopacity="0.25"
     inkscape:showpageshadow="2"
     inkscape:pageopacity="0.0"
     inkscape:pagecheckerboard="0"
     inkscape:deskcolor="#d1d1d1"
     showguides="false"
     inkscape:zoom="6.2810967"
     inkscape:cx="95.285907"
     inkscape:cy="43.304539"
     inkscape:window-width="1920"
     inkscape:window-height="1011"
     inkscape:window-x="0"
     inkscape:window-y="0"
     inkscape:window-maximized="1"
     inkscape:current-layer="layer1"
     showgrid="false">
    <sodipodi:guide
       position="731.20414,5055.4828"
       orientation="0,-1"
       id="guide1"
       inkscape:locked="false" />
    <inkscape:grid
       id="grid19"
       units="px"
       originx="-1410.6392"
       originy="-2870.2956"
       spacingx="1"
       spacingy="1"
       empcolor="#0099e5"
       empopacity="0.30196078"
       color="#0099e5"
       opacity="0.14901961"
       empspacing="5"
       enabled="true"
       visible="false" />
    <sodipodi:guide
       position="751.62254,3910.7186"
       orientation="1,0"
       id="guide19"
       inkscape:locked="false" />
  </sodipodi:namedview>
  <g
     inkscape:groupmode="layer"
     id="layer1"
     inkscape:label="Kingo"
     transform="translate(-1410.6392,-2870.2957)">
    <g
       id="g16"
       transform="matrix(-0.06330886,0,0,0.06330886,1620.9179,2706.7646)"
       style="stroke-width:38.13052391;stroke-dasharray:none">
      <ellipse
         style="fill:#9b9b9b;fill-opacity:1;stroke:#000000;stroke-width:38.13052391;stroke-dasharray:none;stroke-opacity:1;paint-order:markers fill stroke"
         id="ellipse15"
         cx="1521.5625"
         cy="2920.509"
         rx="154.1132"
         ry="177.03914" />
    </g>
    <ellipse
       style="fill:#9b9b9b;fill-opacity:1;stroke:#000000;stroke-width:2.414;stroke-dasharray:none;stroke-opacity:1;paint-order:markers fill stroke"
       id="ellipse1"
       cx="1441.1488"
       cy="2891.658"
       rx="9.7567835"
       ry="11.208269" />
    <g
       id="g17"
       transform="matrix(0.06330886,0,0,0.06330886,1344.8205,2706.7646)">
      <ellipse
         style="fill:#ffffff;fill-opacity:1;stroke:none;stroke-width:33.7552;stroke-dasharray:none;stroke-opacity:1;paint-order:markers fill stroke"
         id="ellipse17"
         cx="1526.129"
         cy="2924.8706"
         rx="126.76182"
         ry="141.37358" />
      <path
         id="ellipse14"
         style="fill:#78b4c7;stroke-width:28.3378;paint-order:markers fill stroke"
         d="m 1616.9247,2884.0375 c 43.9972,54.714 66.734,125.1043 20.9324,161.9348 -45.8014,36.8309 -94.3983,12.1445 -138.3958,-42.5694 -43.9971,-54.714 -66.7339,-118.7361 -20.9323,-155.5665 45.8014,-36.8308 94.3982,-18.5127 138.3957,36.2011 z"
         sodipodi:nodetypes="ccccc" />
    </g>
    <g
       id="g18"
       transform="matrix(-0.06330886,0,0,0.06330886,1620.7414,2706.7646)">
      <ellipse
         style="fill:#ffffff;fill-opacity:1;stroke:none;stroke-width:33.7552;stroke-dasharray:none;stroke-opacity:1;paint-order:markers fill stroke"
         id="ellipse18"
         cx="1526.129"
         cy="2924.8706"
         rx="126.76182"
         ry="141.37358" />
      <path
         id="path18"
         style="fill:#78b4c7;stroke-width:28.3378;paint-order:markers fill stroke"
         d="m 1616.9247,2884.0375 c 43.9972,54.714 66.734,125.1043 20.9324,161.9348 -45.8014,36.8309 -94.3983,12.1445 -138.3958,-42.5694 -43.9971,-54.714 -66.7339,-118.7361 -20.9323,-155.5665 45.8014,-36.8308 94.3982,-18.5127 138.3957,36.2011 z"
         sodipodi:nodetypes="ccccc" />
    </g>
    <path
       id="rect1"
       style="display:inline;fill:#ffffff;fill-opacity:1;stroke:#000000;stroke-width:3.315;stroke-dasharray:none;stroke-opacity:1;paint-order:markers fill stroke"
       d="m 1448.6777,2884.3198 c 14.4077,-8.694 53.9013,-8.659 69.023,-0.322 15.1204,8.337 36.027,47.999 31.2851,68.5389 -4.7411,20.5431 -21.438,17.5751 -34.4296,21.0891 -22.0593,5.9685 -46.7258,5.3586 -68.5399,-1.4497 -13.0086,-4.0611 -30.6976,-1.3199 -34.1068,-22.5411 -3.4101,-21.2222 22.3604,-56.6193 36.7682,-65.3152 z"
       sodipodi:nodetypes="zzzaazz" />
    <path
       id="path19"
       style="display:inline;fill:#e3dedb;stroke-width:1.28451;stroke-linecap:round;paint-order:markers fill stroke"
       d="m 1518.4567,2948.9721 c 0,7.4617 -1.2008,14.1602 -7.8016,19.4337 -6.6007,5.276 -18.0634,8.6948 -27.3969,8.6948 -9.3355,0 -21.2529,-2.508 -27.8537,-7.7814 -6.6008,-5.2764 -7.3449,-12.8854 -7.3449,-20.3471 0,-7.4589 3.7081,-14.6134 10.3091,-19.8873 6.601,-5.2765 15.554,-8.239 24.8895,-8.239 9.3335,0 18.2865,2.9625 24.8875,8.239 6.601,5.2739 10.311,12.4284 10.311,19.8873 z"
       sodipodi:nodetypes="sssssssss" />
    <path
       id="path1"
       style="display:inline;fill:#000000;fill-opacity:0.390713;stroke:none;stroke-width:1.91453;stroke-dasharray:none;stroke-opacity:1;paint-order:markers fill stroke"
       d="m 1448.6777,2884.3198 c 14.4077,-8.694 53.819,-7.6907 68.9416,0.6455 -15.2147,-5.2821 -50.3955,-4.6273 -64.3122,0.8288 -13.6494,5.3503 -20.9014,17.9389 -27.1034,28.5697 -6.2015,10.6281 -12.2434,25.0933 -10.9201,34.979 2.028,15.1587 23.1664,17.8337 30.7327,22.8333 -13.0086,-4.0611 -30.6976,-1.3199 -34.1068,-22.5411 -3.4101,-21.2222 22.3604,-56.6193 36.7682,-65.3152 z"
       sodipodi:nodetypes="zcsssczz" />
    <ellipse
       style="display:inline;fill:#000000;fill-opacity:1;stroke-width:0.0348236;paint-order:markers fill stroke"
       id="path2"
       cx="1481.01"
       cy="2929.2981"
       rx="10.240643"
       ry="7.2757349" />
    <path
       id="path3"
       style="fill:#ffffff;fill-opacity:1;stroke-width:0.0308651;paint-order:markers fill stroke"
       d="m 1488.1436,2927.6498 c 1.4941,2.3087 -3.2266,5.1837 -4.3509,4.704 -0.8004,-0.343 -3.059,-3.703 -3.5347,-5.7091 -0.4735,-2.0049 3.6414,-3.8249 4.2206,1.9445 0.014,-2.2224 2.4228,-2.8574 3.665,-0.9394 z"
       sodipodi:nodetypes="ssscs" />
    <path
       style="fill:#9b9b9b;fill-opacity:1;stroke:#000000;stroke-width:3.015;stroke-linecap:round;stroke-dasharray:none;stroke-opacity:1;paint-order:markers fill stroke"
       d="m 1478.0045,2877.8795 c 11.3042,0.3934 19.1722,-2.0301 25.3241,-5.5757 -1.0805,3.7939 -5.2745,7.039 -11.5186,9.9219"
       id="path4"
       sodipodi:nodetypes="ccc" />
    <ellipse
       style="fill:#000000;fill-opacity:1;stroke-width:0.0334963;paint-order:markers fill stroke"
       id="path5"
       cx="1504.6418"
       cy="2913.509"
       rx="7.2410979"
       ry="9.5788355" />
    <path
       id="path6"
       style="fill:#ffffff;fill-opacity:1;stroke-width:0.0322819;paint-order:markers fill stroke"
       d="m 1504.0437,2909.5511 c 0.8116,0.8273 0.8905,2.4577 -0.3166,3.6431 -1.2094,1.1836 -3.2486,1.4735 -4.0584,0.6463 -0.812,-0.8273 -0.973,-2.7805 0.2361,-3.9637 1.2071,-1.1842 3.3274,-1.153 4.1389,-0.3257 z"
       sodipodi:nodetypes="sssss" />
    <ellipse
       style="fill:#ffffff;fill-opacity:1;stroke-width:0.0324987;paint-order:markers fill stroke"
       id="path7"
       cx="1502.5026"
       cy="2917.1162"
       rx="1.8949034"
       ry="2.4795122" />
    <ellipse
       style="fill:#000000;fill-opacity:1;stroke-width:0.0334963;paint-order:markers fill stroke"
       id="ellipse7"
       cx="1459.1837"
       cy="2913.509"
       rx="7.2410979"
       ry="9.5788355" />
    <path
       id="path8"
       style="fill:#ffffff;fill-opacity:1;stroke-width:0.0322819;paint-order:markers fill stroke"
       d="m 1461.2737,2906.9858 c 0.8112,0.826 1.176,2.5131 -0.033,3.6985 -1.2072,1.1855 -3.5326,1.4185 -4.3424,0.5923 -0.8116,-0.8273 -1.2588,-2.8093 -0.049,-3.9947 1.2076,-1.1851 3.612,-1.1221 4.424,-0.2961 z"
       sodipodi:nodetypes="sssss" />
    <ellipse
       style="fill:#ffffff;fill-opacity:1;stroke-width:0.0344749;paint-order:markers fill stroke"
       id="ellipse8"
       cx="1456.0627"
       cy="2914.9155"
       rx="1.9091691"
       ry="2.7689633" />
    <path
       style="fill:#000000;fill-opacity:1;stroke:none;stroke-width:0.488;stroke-dasharray:none;paint-order:markers fill stroke"
       d="m 1736.387,3031.4724 c 0.4504,2.0991 -9.0979,6.1175 -24.2308,10.6719 -6.7413,3.078 -14.2329,7.1319 -21.7237,12.6554 -5.1425,3.7354 -10.2088,8.0894 -15.0474,13.1088 -2.7557,2.8587 -5.3073,5.7984 -7.6608,8.7788 -3.215,4.0372 -6.2178,8.8912 -9.0059,13.2642 -3.9972,6.2932 -7.6135,12.1536 -10.8731,17.2421 -8.0242,12.9398 -14.0465,20.6538 -15.9225,19.7476 0,0 0,0 0,0 0,0 -10e-5,0 -10e-5,0 0,0 0,0 0,0 0,0 0,0 0,0 0,0 0,0 0,0 0,0 0,0 0,0 0,0 0,0 0,0 0,0 0,0 0,0 0,0 0,0 0,0 0,0 0,0 0,0 -0.01,-0 -0.01,-0 -0.01,-0 7e-4,3e-4 0,7e-4 -0.01,-0 0,0 0,0 0,0 0,0 0,0 0,0 0,0 0,0 0,0 0,0 0,0 0,0 0,0 0,0 0,0 0,0 0,0 0,0 0,0 0,0 0,0 0,0 0,0 0,0 0,0 0,0 0,0 0,0 0,0 0,0 -1.8549,-0.9502 0.8181,-10.3433 6.5977,-24.5704 2.3616,-5.5808 5.3724,-12.1127 8.9588,-18.9226 2.4425,-4.6719 5.3879,-10.0482 9.1753,-15.2012 2.5678,-3.4769 5.4237,-6.877 8.5715,-10.1408 5.5272,-5.7308 11.4831,-10.5533 17.5899,-14.4893 9.2347,-5.8821 18.4034,-9.5971 26.422,-11.7803 16.3088,-2.1885 26.7119,-2.4604 27.1633,-0.3571 z"
       id="path9"
       inkscape:path-effect="#path-effect9"
       inkscape:original-d="m 1736.387,3031.4724 c 0,0 -43.7456,1.0256 -74.2047,40.9912 -10.3469,13.5762 -30.2667,54.4741 -30.2667,54.4741"
       sodipodi:nodetypes="csc"
       transform="matrix(0.06330886,0,0,0.06330886,1344.5673,2706.7646)" />
    <path
       style="fill:#000000;fill-opacity:1;stroke:none;stroke-width:0.487559;paint-order:markers fill stroke"
       d="m 2418.6034,3718.1919 c 0.035,0 0.07,0.01 0.1038,0.025 0.034,0.015 0.067,0.035 0.099,0.062 0,0 0,0 0,0 0.065,0.054 0.129,0.1333 0.1908,0.2371 0,0 0,0 0,0 l 0,0 c 0.1233,0.2072 0.2383,0.5117 0.344,0.9123 l 0,0 c 0.2097,0.7951 0.3784,1.9552 0.49,3.4754 l 0,0 c 0.2189,2.9823 0.2141,7.2626 -0.1871,12.7606 l 0,0 c -0.7529,10.3297 -2.9077,25.1302 -8.064,42.4071 l 0,0 c -4.7571,15.9646 -12.2829,34.5351 -24.1655,52.7266 l 0,0 c -11.4613,17.5438 -27.1844,34.6041 -47.3633,47.7708 -0.3668,0.2387 -0.7347,0.4764 -1.1036,0.7131 -20.7031,13.2836 -42.5117,22.0262 -63.2592,27.3312 0,0 -1e-4,0 -1e-4,0 l 0,0 c -21.4102,5.4751 -41.4472,7.3453 -58.3286,7.4502 l 0,0 c -17.7135,0.1142 -32.0414,-1.6695 -41.9661,-3.6393 l 0,0 c -5.156,-1.0231 -9.0756,-2.0907 -11.752,-3.0436 v 0 c -1.3534,-0.4819 -2.3642,-0.9264 -3.0326,-1.3188 l 0,0 c -0.3358,-0.1972 -0.5822,-0.3793 -0.7386,-0.5452 l 0,0 c 0,0 0,0 0,0 -0.079,-0.083 -0.1346,-0.162 -0.1671,-0.2363 0,0 0,0 0,0 0,0 0,0 0,0 -0,-0.1014 -0.01,-0.1541 -0.015,-0.1815 -0.01,-0.026 -0.012,-0.029 -0.012,-0.029 0,0 0,0 0,0 0,0 0,0 0,0 0,0 0,0 0,0 0,0 0,0 0,0 0,0 0,0 0,0 0,0 0,0 0,0 0,0 0,0 0,0 0,0 0,0 0,0 0,0 0,0 0,0 0,0 0,0 0,0 0,0 0,0 0,0 0,0 0,0 0,0 0,0 0,0 0,0 0,0 0,0 0,0 6e-4,1e-4 0.01,1e-4 0.024,-0.021 0.017,-0.022 0.045,-0.067 0.09,-0.1587 0,0 0,0 0,0 0,0 0,0 0,0 0.06,-0.054 0.1415,-0.1035 0.2447,-0.1482 0,0 0,0 0,0 l 0,0 c 0.2064,-0.089 0.5011,-0.16 0.8797,-0.215 l 0,0 c 0.748,-0.1085 1.8443,-0.1573 3.2467,-0.1637 l 0,0 c 2.6541,-0.012 6.8879,0.1354 11.8843,0.2648 l 0,0 c 9.9254,0.2564 23.822,0.4817 40.882,-0.8664 l 0,0 c 16.2034,-1.285 35.2409,-4.026 55.3127,-9.8307 l 0,0 c 0,0 0,0 0,0 19.4292,-5.62 39.7777,-14.1394 59.0734,-26.5386 0.3442,-0.2212 0.6874,-0.4432 1.0296,-0.666 18.2982,-11.878 33.0332,-27.3836 44.1574,-43.2959 v 0 c 11.565,-16.5418 19.5518,-33.7864 25.1804,-48.6894 l 0,0 c 6.0869,-16.1403 9.6759,-30.1936 12.0519,-39.9953 l 0,0 c 1.2333,-5.0901 2.2293,-9.4348 2.9546,-12.1346 l 0,0 c 0.386,-1.4371 0.7302,-2.55 1.0398,-3.2899 l 0,0 c 0.1571,-0.3756 0.3077,-0.6602 0.452,-0.849 l 0,0 c 0,0 0,0 0,0 0.073,-0.095 0.144,-0.1665 0.2142,-0.2133 0,0 0,0 0,0 0.035,-0.023 0.07,-0.041 0.1049,-0.052 0.035,-0.011 0.071,-0.016 0.1055,-0.015 z"
       id="path11"
       inkscape:path-effect="#path-effect11"
       inkscape:original-d="m 2418.6034,3718.1919 c 0,0 -4.4452,103.7111 -82.4063,154.4555 -82.162,53.4787 -176.5207,32.4222 -176.5207,32.4222"
       sodipodi:nodetypes="csc"
       transform="matrix(0.06330886,0,0,0.06330886,1344.8205,2706.7646)" />
    <path
       style="fill:#000000;fill-opacity:1;stroke:none;stroke-width:0.487559;paint-order:markers fill stroke"
       d="m 2639.714,3072.2053 c -0.012,-1.253 3.4026,-2.8559 9.7917,-2.981 6.2984,-0.1233 15.5758,1.3119 25.318,6.7019 8.6818,4.8364 17.0284,12.2759 23.6037,22.2571 0.4741,0.7198 0.9333,1.4441 1.3775,2.1722 6.7082,10.9254 9.9785,22.2714 10.8832,32.2981 0.9124,9.6364 -0.5399,17.4631 -2.5316,22.7055 -1.9817,5.2161 -4.2939,7.5426 -5.4088,7.1529 -1.1812,-0.4128 -1.1986,-3.4769 -1.36,-8.3662 -0.1697,-5.1428 -0.5743,-11.4327 -2.472,-19.6467 -1.9805,-8.3791 -5.4293,-17.5929 -11.1209,-26.7149 -0.3794,-0.6035 -0.7677,-1.205 -1.1651,-1.804 -5.5102,-8.3056 -11.8312,-14.7518 -18.4267,-19.4908 -7.2486,-5.2579 -14.525,-8.1099 -19.7993,-9.9892 -5.292,-1.8857 -8.6772,-2.9465 -8.6897,-4.2949 z"
       id="path12"
       inkscape:path-effect="#path-effect12"
       inkscape:original-d="m 2639.714,3072.2053 c 47.9535,-0.4432 75.2642,55.3131 63.0337,90.3067"
       sodipodi:nodetypes="cc"
       transform="matrix(0.06330886,0,0,0.06330886,1344.8205,2706.7646)" />
    <ellipse
       style="fill:#b30404;fill-opacity:1;stroke-width:0.0320946;stroke-dasharray:none;paint-order:markers fill stroke"
       id="path13"
       cx="1527.457"
       cy="2935.2815"
       rx="7.6602559"
       ry="4.5155292" />
    <ellipse
       style="fill:#b30404;fill-opacity:1;stroke-width:0.0320946;stroke-dasharray:none;paint-order:markers fill stroke"
       id="ellipse13"
       cx="1437.8159"
       cy="2935.2815"
       rx="7.6602559"
       ry="4.5155292" />
    <path
       style="fill:#f9f9f9;fill-opacity:1;stroke:none;stroke-width:30.2362;stroke-linecap:round;stroke-dasharray:none;stroke-opacity:1;paint-order:markers fill stroke"
       d="m 2548.7424,3485.3827 c 0.8168,-1.9837 5.8764,-2.6621 13.4269,-1.0555 4.8913,1.0309 10.8165,3.0255 17.026,6.2646 0,0 0,0 0,0 3.102,1.6265 6.2243,3.5392 9.301,5.744 9.5105,6.8157 16.2612,14.7505 20.1488,21.3202 3.8722,6.5438 4.778,11.4291 2.9936,12.7973 -1.8504,1.4188 -6.065,-0.8645 -11.7354,-4.8963 -5.6869,-4.0436 -12.9025,-9.8251 -21.098,-15.6972 -2.6958,-1.9316 -5.2664,-3.7139 -7.8051,-5.429 0,0 0,0 0,0 -5.0389,-3.4214 -9.7383,-6.4375 -13.5211,-9.1073 -5.9645,-4.2381 -9.7088,-7.58 -8.7367,-9.9408 z"
       id="path20"
       inkscape:path-effect="#path-effect20"
       inkscape:original-d="m 2548.7424,3485.3827 c 11.2499,4.6325 38.0657,12.6869 62.8963,45.0706"
       sodipodi:nodetypes="cc"
       transform="matrix(0.06330886,0,0,0.06330886,1344.0651,2707.4202)" />
    <path
       style="fill:#bb2222;fill-opacity:1;stroke:none;stroke-width:30.2362;stroke-linecap:round;stroke-dasharray:none;stroke-opacity:1;paint-order:markers fill stroke"
       d="m 2058.8075,3391.7187 c -0.4511,-2.2536 10.092,-6.6697 27.8829,-10.7819 18.1228,-4.1889 42.4975,-7.6838 70.7112,-8.3702 28.0994,-0.6837 52.8393,1.5926 71.0493,4.7115 17.9899,3.0812 28.7913,6.7582 28.492,9.0369 -0.2993,2.2787 -11.5839,2.7461 -29.5141,2.6989 -19.457,-0.051 -41.0068,-0.4879 -69.6243,0.2011 -28.9412,0.6968 -49.7221,2.1768 -69.4183,3.3666 -17.8505,1.0783 -29.1276,1.3907 -29.5787,-0.8629 z"
       id="path21"
       inkscape:path-effect="#path-effect21"
       inkscape:original-d="m 2058.8075,3391.7187 c 61.3847,-12.2871 127.1458,-14.7275 198.1354,-5.4037"
       sodipodi:nodetypes="cc"
       transform="matrix(0.06330886,0,0,0.06330886,1344.8205,2706.7646)" />
    <path
       style="fill:#ed2233;fill-opacity:1;stroke:none;stroke-width:30.2362;stroke-linecap:round;stroke-dasharray:none;stroke-opacity:1;paint-order:markers fill stroke"
       d="m 1583.163,3600.6451 c 2.7931,2.8448 -22.7684,31.3686 -71.5665,72.3884 -0.035,-33.9694 0.097,-73.6194 0.3569,-119.5913 -1.0716,1.5639 -52.3173,76.2417 -53.3888,77.8056 -0.9286,1.3516 -28.4902,41.4433 -29.4188,42.7949 3.6714,-49.3612 7.0017,-93.4625 10.0387,-132.5954 -43.9302,60.4371 -77.9676,96.5734 -81.4598,93.5867 -3.4922,-2.9867 27.6482,-43.0582 84.1164,-100.0101 -2.9489,38.6829 -6.3977,82.7105 -10.3399,132.3264 -1.0995,1.6153 30.5661,-44.8838 29.4666,-43.2685 -1.3622,1.9992 54.664,-80.1261 53.3018,-78.127 0.2597,45.5832 0.3916,85.2975 0.3569,119.8575 37.4448,-43.655 65.7434,-68.012 68.5365,-65.1672 z"
       id="path22"
       inkscape:path-effect="#path-effect22"
       inkscape:original-d="m 1583.163,3600.6451 -70.0515,68.7778 v -119.7244 l -82.788,120.998 10.1893,-132.4609 -82.7881,96.7984"
       transform="matrix(0.06330886,0,0,0.06330886,1344.8205,2706.7646)" />
    <path
       style="fill:#ed2233;fill-opacity:1;stroke:none;stroke-width:30.2362;stroke-linecap:round;stroke-dasharray:none;stroke-opacity:1;paint-order:markers fill stroke"
       d="m 2776.5852,3580.9033 c 3.6091,-1.507 19.0766,28.2286 34.7853,82.8902 0.3829,2.5383 -16.0234,-106.1233 -15.6405,-103.585 0.1957,0.3957 57.3279,115.9301 57.5237,116.3257 0.1284,0.7794 -22.2599,-135.181 -22.1314,-134.4016 -7.8389,-15.8305 56.1591,113.425 48.3203,97.5945 -0.3473,-0.7017 18.1249,36.6178 17.7776,35.9161 -3.5796,-37.5983 -9.525,-100.1087 -13.1045,-137.707 -0.171,-0.4524 49.7689,131.7211 49.5979,131.2688 -4.5465,-49.298 -8.4161,-91.8531 -11.675,-128.4309 48.1207,63.2415 70.0713,103.8312 66.2042,106.2691 -3.867,2.4379 -30.7338,-34.4067 -64.385,-100.8725 3.1885,36.6648 6.779,78.8564 10.8404,127.3439 -0.1428,-0.3773 -49.3271,-130.4328 -49.4699,-130.8102 5.8181,58.4195 8.0961,81.2631 13.9141,139.6826 -0.3086,-0.6278 -17.5091,-35.6154 -17.8178,-36.2432 -4.1886,-8.5208 -44.2863,-90.1089 -48.4749,-98.6298 0.1377,0.838 21.8611,133.144 21.9988,133.982 0.2444,0.4947 -57.9995,-117.4287 -57.7551,-116.9339 0.4399,2.9897 14.5407,98.7656 14.9805,101.7554 -28.7482,-51.8115 -39.0978,-83.9072 -35.4887,-85.4142 z"
       id="path23"
       inkscape:path-effect="#path-effect23"
       inkscape:original-d="m 2776.5852,3580.9033 35.137,84.1522 -15.3105,-102.6702 57.6394,116.6298 -22.0651,-134.1918 66.1953,134.1918 -13.5093,-138.6948 49.5339,131.0395 -11.2577,-127.8874 65.2946,103.5708"
       transform="matrix(0.06330886,0,0,0.06330886,1344.8205,2706.7646)" />
  </g>
</svg>
